<?xml version="1.0" standalone="no"?>
<!DOCTYPE svg PUBLIC "-//W3C//DTD SVG 20010904//EN"
 "http://www.w3.org/TR/2001/REC-SVG-20010904/DTD/svg10.dtd">
<svg version="1.0" xmlns="http://www.w3.org/2000/svg"
 width="320.000000pt" height="320.000000pt" viewBox="0 0 320.000000 320.000000"
 preserveAspectRatio="xMidYMid meet">
<metadata>
Created by potrace 1.11, written by Peter Selinger 2001-2013
</metadata>
<g transform="translate(0.000000,320.000000) scale(0.100000,-0.100000)"
fill="#000000" stroke="none">
<path d="M1325 2676 c-19 -8 -58 -52 -105 -116 -41 -56 -97 -133 -125 -171
-27 -37 -57 -77 -65 -89 -8 -12 -45 -63 -82 -114 -37 -50 -78 -106 -90 -124
-13 -18 -28 -39 -33 -45 -11 -13 -416 -568 -450 -617 -53 -76 -291 -404 -302
-415 -24 -25 -53 -81 -53 -102 0 -37 21 -70 54 -88 28 -15 157 -16 1543 -13
l1512 3 23 23 c42 41 26 137 -32 192 -16 14 -80 111 -80 120 0 6 -3 10 -7 10
-5 0 -19 17 -33 37 -33 50 -157 225 -170 241 -6 6 -8 12 -3 12 4 0 -1 6 -12
13 -11 9 -15 19 -10 27 5 8 4 11 -2 7 -9 -6 -76 79 -118 151 -11 17 -23 32
-27 32 -4 0 -8 10 -8 22 0 12 -3 18 -7 15 -9 -10 -43 44 -36 56 3 6 1 7 -5 3
-6 -4 -17 5 -26 21 -8 15 -26 41 -40 57 -14 16 -26 35 -26 42 0 7 -4 14 -8 16
-19 8 -63 78 -56 89 4 7 3 9 -3 6 -9 -6 -68 65 -72 85 -1 4 -13 20 -26 34 -14
15 -23 29 -21 31 2 3 -3 13 -12 22 -9 10 -26 31 -37 47 -27 39 -73 84 -88 85
-35 4 -85 3 -84 -1 1 -3 -7 -14 -18 -26 -32 -33 -55 -64 -55 -72 0 -4 -10 -19
-23 -34 -12 -15 -39 -52 -61 -83 -21 -31 -39 -55 -41 -53 -28 28 -103 144 -98
152 3 6 3 8 -2 4 -8 -7 -42 36 -165 207 -36 50 -67 92 -70 95 -3 3 -32 42 -64
87 -90 126 -121 146 -181 119z"/>
</g>
</svg>
